#!OML:ASF Y:\EmotionMaleHayes\Project 1\Capture day 1\Session 1\Male1.ASF
:FULLY-SPECIFIED
:DEGREES
2017
root 8.95033 16.9116 1.42892 1088.12 66.4739 1088.98
lowerback 10.9445 1.66002 -7.35463
upperback 9.6405 2.09362 -1.22674
thorax 3.85528 0.857828 2.68415
lowerneck -20.2271 -4.78497 -3.47089
upperneck 21.4083 -6.11764 2.53257
head 10.3863 -2.74993 0.573164
rclavicle 2.88238e-014 5.1684e-015
rhumerus -48.9511 40.4568 -114.644
rradius 120.156
rwrist -26.9936
rhand -39.1777 -32.9068
rfingers 7.12502
rthumb -12.175 -62.5325
lclavicle 2.88238e-014 5.1684e-015
lhumerus -42.5873 -51.4464 116.046
lradius 107.382
lwrist 18.4258
lhand -38.2149 -49.1656
lfingers 7.12502
lthumb -11.2465 -19.4871
rfemur -11.881 13.1423 13.1741
rtibia 22.6871
rfoot -13.2814 16.7608
rtoes -10.929
lfemur -6.38656 4.06226 -17.4212
ltibia 31.0808
lfoot -19.0024 7.98045
ltoes -31.067
2018
root 8.96254 16.9083 1.40526 1088.63 65.8832 1089.59
lowerback 10.8419 1.71975 -7.64515
upperback 9.65673 2.16386 -1.3254
thorax 3.92288 0.877548 2.73965
lowerneck -20.2211 -4.97835 -3.65649
upperneck 21.3682 -6.378 2.72392
head 10.3933 -2.86182 0.631639
rclavicle 3.27995e-014 -2.42517e-014
rhumerus -48.9078 40.3315 -114.643
rradius 120.117
rwrist -26.7929
rhand -36.7408 -32.8495
rfingers 7.12502
rthumb -9.82458 -62.6003
lclavicle 3.27995e-014 -2.42517e-014
lhumerus -42.5658 -51.5109 116.005
lradius 107.373
lwrist 18.2529
lhand -38.3879 -49.6814
lfingers 7.12502
lthumb -11.4134 -20.012
rfemur -12.0022 13.2199 12.6697
rtibia 22.8052
rfoot -13.2788 17.1952
rtoes -10.9358
lfemur -6.04152 3.80874 -17.9101
ltibia 30.6813
lfoot -19.199 7.8764
ltoes -30.2237
2019
root 8.98118 16.9062 1.3826 1088.91 65.3936 1089.92
lowerback 10.6057 1.71299 -7.71863
upperback 9.69107 2.17727 -1.45978
thorax 4.09191 0.877715 2.64587
lowerneck -20.0847 -5.11071 -3.67572
upperneck 21.2792 -6.58655 2.83122
head 10.348 -2.94878 0.644513
rclavicle -1.60022e-014 1.11319e-014
rhumerus -48.6112 40.31 -114.596
rradius 120.02
rwrist -26.7736
rhand -37.5186 -33.7031
rfingers 7.12502
rthumb -10.5749 -63.4171
lclavicle -1.60022e-014 1.11319e-014
lhumerus -42.6323 -51.3964 115.911
lradius 107.463
lwrist 17.895
lhand -38.4199 -49.9448
lfingers 7.12502
lthumb -11.4442 -20.2772
rfemur -12.0172 13.1894 12.3025
rtibia 22.7531
rfoot -13.203 17.704
rtoes -10.8411
lfemur -5.68154 3.54354 -18.3005
ltibia 30.233
lfoot -19.3565 7.78388
ltoes -29.4281
2020
root 9.00061 16.9031 1.35935 1088.95 64.9991 1090
lowerback 10.3044 1.64041 -7.64864
upperback 9.76698 2.1246 -1.59681
thorax 4.35014 0.849639 2.47702
lowerneck -20.2351 -5.30293 -3.52424
upperneck 21.4191 -6.9251 2.91619
head 10.4362 -3.07683 0.593744
rclavicle 5.15846e-014 -1.11319e-014
rhumerus -48.2528 40.4036 -114.545
rradius 119.93
rwrist -26.7528
rhand -38.1513 -33.6967
rfingers 7.12502
rthumb -11.1852 -63.3785
lclavicle 5.15846e-014 -1.11319e-014
lhumerus -42.5509 -51.3757 115.679
lradius 107.504
lwrist 17.7841
lhand -38.6657 -50.1478
lfingers 7.12502
lthumb -11.6813 -20.4935
rfemur -11.9352 13.0573 12.0668
rtibia 22.4931
rfoot -12.7851 18.2476
rtoes -9.96256
lfemur -5.33057 3.38538 -18.5724
ltibia 29.8188
lfoot -19.5446 7.92254
ltoes -29.8786
2021
root 9.01666 16.8996 1.33578 1089.02 64.6052 1090.12
lowerback 10.1601 1.61941 -7.80546
upperback 9.75059 2.09451 -1.56995
thorax 4.41206 0.820521 2.59799
lowerneck -20.3072 -5.50415 -3.5608
upperneck 21.5992 -7.20782 2.95508
head 10.5283 -3.20007 0.566578
rclavicle 1.81888e-014 1.72943e-014
rhumerus -48.1624 40.4027 -114.422
rradius 119.893
rwrist -26.6307
rhand -37.3322 -33.0227
rfingers 7.12502
rthumb -10.3951 -62.7458
lclavicle 1.81888e-014 1.72943e-014
lhumerus -42.6191 -51.3642 115.837
lradius 107.482
lwrist 17.7614
lhand -38.9577 -50.732
lfingers 7.12502
lthumb -11.9629 -21.0939
rfemur -11.9377 13.0398 11.8351
rtibia 22.38
rfoot -12.4606 18.6324
rtoes -9.31498
lfemur -4.97301 3.2594 -18.8721
ltibia 29.3393
lfoot -19.7036 8.16113
ltoes -30.3079
2022
root 9.03047 16.8905 1.30834 1087.82 64.0951 1088.93
lowerback 10.3586 1.69563 -7.63444
upperback 9.5948 2.15115 -1.22151
thorax 4.11553 0.852973 2.85619
lowerneck -19.9488 -5.64155 -3.94227
upperneck 21.5637 -7.3022 3.01395
head 10.4706 -3.27257 0.643603
rclavicle -7.35503e-015 -1.51076e-014
rhumerus -48.5048 40.3145 -114.282
rradius 119.96
rwrist -26.5531
rhand -39.057 -33.5885
rfingers 7.12502
rthumb -12.0586 -63.221
lclavicle -7.35503e-015 -1.51076e-014
lhumerus -43.0556 -51.1555 116.548
lradius 107.442
lwrist 17.6248
lhand -39.0538 -51.5391
lfingers 7.12502
lthumb -12.0555 -21.9064
rfemur -11.9896 13.5451 12.3688
rtibia 22.5248
rfoot -12.4309 18.7412
rtoes -9.2098
lfemur -4.45204 3.32165 -18.4467
ltibia 28.7942
lfoot -19.8942 8.3535
ltoes -29.7864
2023
root 9.04716 16.8728 1.26851 1084.37 63.5968 1085.48
lowerback 10.6009 1.62077 -5.95019
upperback 9.64748 2.1311 -0.910136
thorax 4.0483 0.923549 2.24006
lowerneck -20.0085 -5.72498 -4.03249
upperneck 21.6693 -7.43077 3.16151
head 10.5356 -3.31811 0.688098
rclavicle 6.06293e-014 -3.27995e-014
rhumerus -48.5234 40.3235 -114.365
rradius 120.008
rwrist -26.4844
rhand -39.5038 -32.9734
rfingers 7.12502
rthumb -12.4894 -62.5802
lclavicle 6.06293e-014 -3.27995e-014
lhumerus -43.1794 -51.0851 116.569
lradius 107.471
lwrist 17.5397
lhand -39.1936 -52.1868
lfingers 7.12502
lthumb -12.1903 -22.562
rfemur -11.8305 14.3105 14.2446
rtibia 22.7756
rfoot -12.5133 18.7715
rtoes -9.2253
lfemur -3.69514 3.59837 -16.7344
ltibia 28.2694
lfoot -20.1556 8.56718
ltoes -29.0307
2024
root 9.06367 16.8697 1.24111 1084.66 63.3331 1085.8
lowerback 10.4236 1.54188 -6.06268
upperback 9.67434 2.0334 -0.946393
thorax 4.18203 0.86457 2.27747
lowerneck -20.4657 -5.85264 -4.03197
upperneck 22.0828 -7.60647 3.15353
head 10.7793 -3.38561 0.642358
rclavicle 1.63997e-014 -6.55989e-015
rhumerus -48.3929 40.2487 -114.27
rradius 120.093
rwrist -26.369
rhand -40.09 -32.5247
rfingers 7.12502
rthumb -13.0545 -62.0962
lclavicle 1.63997e-014 -6.55989e-015
lhumerus -43.1648 -51.0435 116.55
lradius 107.531
lwrist 17.4593
lhand -39.4074 -52.825
lfingers 7.12502
lthumb -12.3965 -23.2125
rfemur -11.9199 14.2746 13.921
rtibia 22.8225
rfoot -12.4883 19.0306
rtoes -9.38262
lfemur -3.40902 3.50996 -17.2097
ltibia 27.813
lfoot -20.4403 8.99639
ltoes -28.7195
2025
root 9.08156 16.8681 1.2063 1085.01 62.9665 1086.23
lowerback 10.2381 1.47734 -6.07466
upperback 9.71247 1.96544 -1.05612
thorax 4.33395 0.828404 2.1798
lowerneck -19.7191 -5.97575 -4.46803
upperneck 21.3892 -7.81049 3.79036
head 10.4438 -3.4599 0.931208
rclavicle 4.67144e-015 -1.45113e-014
rhumerus -48.2437 40.0811 -114.259
rradius 120.113
rwrist -26.2805
rhand -38.2819 -32.1463
rfingers 7.12502
rthumb -11.3112 -61.8213
lclavicle 4.67144e-015 -1.45113e-014
lhumerus -43.058 -51.0445 116.432
lradius 107.57
lwrist 17.4636
lhand -39.6445 -53.5232
lfingers 7.12502
lthumb -12.6251 -23.9247
rfemur -11.9819 14.078 13.4933
rtibia 22.8363
rfoot -12.3548 19.5156
rtoes -9.57556
lfemur -3.04519 3.44806 -17.8094
ltibia 27.269
lfoot -20.6166 9.61635
ltoes -28.6455
